<svg width="609" height="579" viewBox="0 0 609 579" fill="none" xmlns="http://www.w3.org/2000/svg">
<path d="M38.8838 21.1001C36.0931 16.389 31.0237 13.5 25.5481 13.5H-66.3252C-78.3344 13.5 -85.7817 26.5676 -79.6609 36.8999L-23.0605 132.446C-20.2698 137.157 -15.2004 140.046 -9.72485 140.046H82.1485C94.1577 140.046 101.605 126.978 95.4842 116.646L38.8838 21.1001Z" stroke="#406BCA"/>
<path d="M170.1 305.554C167.309 300.843 162.24 297.954 156.764 297.954H64.8908C52.8816 297.954 45.4343 311.022 51.5551 321.354L108.155 416.9C110.946 421.611 116.016 424.5 121.491 424.5H213.364C225.374 424.5 232.821 411.432 226.7 401.1L170.1 305.554Z" stroke="#406BCA"/>
<path d="M87.2834 459.1C84.4927 454.389 79.4233 451.5 73.9477 451.5H-17.9256C-29.9348 451.5 -37.3821 464.568 -31.2613 474.9L25.3391 570.446C28.1298 575.157 33.1992 578.046 38.6748 578.046H130.548C142.557 578.046 150.005 564.978 143.884 554.646L87.2834 459.1Z" stroke="#406BCA"/>
<path opacity="0.4" d="M23.7149 305.3C20.8341 300.437 15.6012 297.454 9.94901 297.454H-81.9243C-94.3209 297.454 -102.008 310.943 -95.6902 321.609L-39.0898 417.155C-36.209 422.018 -30.9762 425 -25.324 425H66.5494C78.946 425 86.6335 411.511 80.3153 400.845L23.7149 305.3Z" fill="#406BCA"/>
<path d="M189.369 21.1001C186.579 16.389 181.509 13.5 176.034 13.5H84.1603C72.1511 13.5 64.7038 26.5676 70.8246 36.8999L127.425 132.446C130.216 137.157 135.285 140.046 140.761 140.046H232.634C244.643 140.046 252.091 126.978 245.97 116.646L189.369 21.1001Z" stroke="#406BCA"/>
<path opacity="0.4" d="M321.016 305.299C318.136 300.436 312.903 297.454 307.25 297.454H215.377C202.981 297.454 195.293 310.943 201.611 321.609L258.212 417.155C261.092 422.018 266.325 425 271.977 425H363.851C376.247 425 383.935 411.511 377.617 400.845L321.016 305.299Z" fill="#406BCA"/>
<path opacity="0.4" d="M238.2 458.845C235.319 453.982 230.086 451 224.434 451H132.561C120.164 451 112.477 464.489 118.795 475.155L175.395 570.7C178.276 575.563 183.509 578.546 189.161 578.546H281.034C293.431 578.546 301.119 565.057 294.8 554.391L238.2 458.845Z" fill="#406BCA"/>
<path opacity="0.4" d="M341.203 20.8452C338.322 15.9822 333.089 13 327.437 13H235.563C223.167 13 215.479 26.4891 221.798 37.1548L278.398 132.7C281.279 137.563 286.512 140.546 292.164 140.546H384.037C396.434 140.546 404.121 127.057 397.803 116.391L341.203 20.8452Z" fill="#406BCA"/>
<path d="M471.989 305.554C469.198 300.843 464.128 297.954 458.653 297.954H366.779C354.77 297.954 347.323 311.022 353.444 321.354L410.044 416.9C412.835 421.611 417.904 424.5 423.38 424.5H515.253C527.262 424.5 534.71 411.432 528.589 401.1L471.989 305.554Z" stroke="#406BCA"/>
<path d="M389.172 459.1C386.381 454.389 381.312 451.5 375.836 451.5H283.963C271.954 451.5 264.507 464.568 270.627 474.9L327.228 570.446C330.019 575.157 335.088 578.046 340.563 578.046H432.437C444.446 578.046 451.893 564.978 445.772 554.646L389.172 459.1Z" stroke="#406BCA"/>
<path d="M38.8838 162.41C36.0931 157.699 31.0237 154.81 25.5481 154.81H-66.3252C-78.3344 154.81 -85.7817 167.877 -79.6609 178.21L-23.0605 273.755C-20.2698 278.466 -15.2004 281.355 -9.72485 281.355H82.1485C94.1577 281.355 101.605 268.288 95.4842 257.955L38.8838 162.41Z" stroke="#406BCA"/>
<path opacity="0.4" d="M189.8 162.155C186.919 157.292 181.686 154.31 176.034 154.31H84.1603C71.7637 154.31 64.0762 167.799 70.3944 178.464L126.995 274.01C129.876 278.873 135.108 281.855 140.761 281.855H232.634C245.031 281.855 252.718 268.366 246.4 257.7L189.8 162.155Z" fill="#406BCA"/>
<path d="M340.772 162.41C337.982 157.699 332.912 154.81 327.437 154.81H235.563C223.554 154.81 216.107 167.877 222.228 178.21L278.828 273.755C281.619 278.466 286.688 281.355 292.164 281.355H384.037C396.046 281.355 403.494 268.288 397.373 257.955L340.772 162.41Z" stroke="#406BCA"/>
<path d="M355.241 137.806C352.354 132.965 347.134 130 341.498 130H254.496C242.079 130 234.395 143.529 240.754 154.194L294.416 244.194C297.302 249.035 302.522 252 308.158 252H395.16C407.577 252 415.262 238.471 408.903 227.806L355.241 137.806Z" fill="url(#paint0_linear_557_1335)"/>
<path d="M188.241 285.806C185.354 280.965 180.134 278 174.498 278H87.4963C75.0793 278 67.3947 291.529 73.7536 302.194L127.416 392.194C130.302 397.035 135.522 400 141.158 400H228.16C240.577 400 248.262 386.471 241.903 375.806L188.241 285.806Z" fill="url(#paint1_linear_557_1335)"/>
<path d="M540.912 464.352C538.026 459.511 532.806 456.546 527.17 456.546H440.168C427.751 456.546 420.067 470.075 426.426 480.74L480.088 570.74C482.974 575.581 488.194 578.546 493.83 578.546H580.832C593.249 578.546 600.933 565.017 594.574 554.352L540.912 464.352Z" fill="#406BCA"/>
<path d="M66.2406 7.80605C63.3543 2.96523 58.134 0 52.498 0H-34.5037C-46.9207 0 -54.6053 13.5289 -48.2464 24.194L5.41568 114.194C8.30199 119.035 13.5223 122 19.1583 122H106.16C118.577 122 126.262 108.471 119.903 97.806L66.2406 7.80605Z" fill="#406BCA"/>
<defs>
<linearGradient id="paint0_linear_557_1335" x1="324.828" y1="130" x2="246.709" y2="253.225" gradientUnits="userSpaceOnUse">
<stop stop-color="#F96E7C"/>
<stop offset="1" stop-color="#8D74EF"/>
</linearGradient>
<linearGradient id="paint1_linear_557_1335" x1="157.828" y1="278" x2="79.709" y2="401.225" gradientUnits="userSpaceOnUse">
<stop stop-color="#F96E7C"/>
<stop offset="1" stop-color="#8D74EF"/>
</linearGradient>
</defs>
</svg>
