<svg width="604" height="606" viewBox="0 0 604 606" fill="none" xmlns="http://www.w3.org/2000/svg">
<rect x="28" y="118" width="58" height="196" fill="#E6222F"/>
<rect x="517" y="46" width="58" height="257" fill="#E6222F"/>
<rect x="163.621" y="179.006" width="56.157" height="145.626" transform="rotate(-180 163.621 179.006)" stroke="#E6222F" stroke-width="0.75841"/>
<rect x="164.273" y="322.134" width="58.2731" height="200.137" transform="rotate(-180 164.273 322.134)" fill="#F96E7C"/>
<rect x="495.621" y="285.963" width="56.2416" height="239.583" transform="rotate(-180 495.621 285.963)" stroke="#E6222F" stroke-width="0.75841"/>
<rect x="497" y="521" width="58" height="328.846" transform="rotate(-180 497 521)" fill="#F96E7C"/>
<rect x="331.273" y="492.134" width="58.2731" height="446.134" transform="rotate(-180 331.273 492.134)" fill="#F96E7C"/>
<rect x="29.3792" y="387.379" width="56.2416" height="149.242" stroke="#E6222F" stroke-width="0.75841"/>
<rect x="29.3792" y="322.379" width="56.2416" height="23.2416" stroke="#E6222F" stroke-width="0.75841"/>
<rect x="29.3792" y="354.379" width="56.2416" height="23.2416" stroke="#E6222F" stroke-width="0.75841"/>
<rect x="185" width="58" height="565" fill="#E6222F"/>
<rect x="361" y="184" width="58" height="257" fill="#E6222F"/>
<rect x="362.379" y="322.379" width="56.2416" height="242.242" stroke="#E6222F" stroke-width="0.75841"/>
<rect x="518.379" y="314.379" width="56.2416" height="98.2416" stroke="#E6222F" stroke-width="0.75841"/>
<rect x="519.379" y="429.379" width="56.2416" height="26.2416" stroke="#E6222F" stroke-width="0.75841"/>
<rect x="519.379" y="472.379" width="56.2416" height="26.2416" stroke="#E6222F" stroke-width="0.75841"/>
</svg>
