<svg width="604" height="606" viewBox="0 0 604 606" fill="none" xmlns="http://www.w3.org/2000/svg">
<rect x="444.591" y="520.45" width="57.5147" height="285.211" rx="28.7573" transform="rotate(90 444.591 520.45)" stroke="#E6222F" stroke-width="0.75841"/>
<rect x="444.969" y="27" width="58.2731" height="285.97" transform="rotate(90 444.969 27)" fill="#E6222F"/>
<rect x="444.97" y="438.214" width="58.2731" height="285.97" transform="rotate(90 444.97 438.214)" fill="#E6222F"/>
<rect x="444.591" y="273.538" width="57.5147" height="285.211" transform="rotate(90 444.591 273.538)" stroke="#E6222F" stroke-width="0.75841"/>
<rect x="444.97" y="190.632" width="58.2731" height="285.97" rx="29.1365" transform="rotate(90 444.97 190.632)" fill="#E6222F"/>
<rect x="368.164" y="355.687" width="56.9154" height="209.164" transform="rotate(90 368.164 355.687)" fill="#F96E7C"/>
<rect x="444.621" y="109.907" width="56.157" height="208.406" transform="rotate(90 444.621 109.907)" stroke="#E6222F" stroke-width="0.75841"/>
<rect x="445" y="356" width="57" height="57" rx="28.5" transform="rotate(90 445 356)" fill="#E6222F"/>
<rect x="216" y="110" width="56" height="57" rx="28" transform="rotate(90 216 110)" fill="#E6222F"/>
</svg>
