<svg xmlns="http://www.w3.org/2000/svg" width="113" height="47" viewBox="0 0 113 47" fill="none">
  <path d="M106.051 22.4395C105.755 22.3159 105.755 21.8905 106.051 21.7649C109.13 20.4563 111.644 17.5148 111.644 12.1141C111.644 4.12245 105.587 0 96.4997 0H77.1678C68.0963 0 62.1102 4.11029 62.0879 12.0736C62.1365 12.2418 62.1811 12.4018 62.2297 12.5699L71.3842 27.5303C71.4875 27.6984 71.7103 27.7551 71.8764 27.6478C73.0554 26.8901 74.6355 26.485 76.5864 26.485H97.0791C101.655 26.485 104.232 28.6769 104.232 32.542C104.232 36.6017 100.559 38.6639 95.4038 38.6639H78.8471C78.5615 38.6639 78.3873 38.9759 78.5352 39.219L83.0081 46.528C83.1296 46.7265 83.3464 46.8481 83.5793 46.8481H97.3992C106.55 46.8481 112.479 41.2427 112.479 32.6717C112.479 27.5971 109.823 24.0135 106.049 22.4395M96.4977 19.5892H77.1657C72.5267 19.5892 70.3348 17.9787 70.3348 13.9191C70.3348 9.60217 73.3634 8.1193 78.7114 8.1193H94.95C100.298 8.1193 103.327 9.60217 103.327 13.9191C103.327 17.9787 101.137 19.5892 96.4957 19.5892" fill="#E6222F"/>
  <path d="M50.4317 46.6738L43.9451 35.7833C43.8236 35.5807 43.6068 35.4571 43.3698 35.4571H22.6846C22.403 35.4571 22.2268 35.1512 22.3686 34.9081L25.6402 29.2907C25.7598 29.084 25.9806 28.9584 26.2196 28.9584H39.2595C39.5431 28.9584 39.7173 28.6505 39.5735 28.4074L29.9977 12.3289C29.8559 12.0918 29.5115 12.0918 29.3697 12.3289L9.05927 46.6698C8.93975 46.8744 8.71894 46.998 8.48395 46.998H0.364639C0.0810301 46.998 -0.0931821 46.688 0.0526737 46.4449L26.0879 3.09335C27.034 1.51527 28.2332 0.506439 29.9997 0.506439C31.7662 0.506439 32.9006 1.51527 33.8466 3.09335L59.9447 46.4449C60.0905 46.688 59.9163 46.998 59.6327 46.998H51.007C50.772 46.998 50.5532 46.8744 50.4317 46.6718" fill="#102054"/>
  <path d="M53.2402 8.69458L48.3217 0.532743C48.2001 0.332192 47.9834 0.208618 47.7484 0.208618H39.3596C39.076 0.208618 38.8998 0.518558 39.0477 0.761651L43.9581 8.9235C44.0797 9.12405 44.2965 9.24762 44.5314 9.24762H52.9283C53.2119 9.24762 53.3881 8.93768 53.2402 8.69458Z" fill="#102054"/>
  <path d="M76.0265 46.4469L56.9336 14.8388C56.812 14.6382 56.5953 14.5146 56.3603 14.5146H47.9553C47.6717 14.5146 47.4955 14.8246 47.6434 15.0677L66.6978 46.6758C66.8194 46.8764 67.0361 47 67.2711 47H75.7145C75.9981 47 76.1744 46.69 76.0265 46.4469Z" fill="#102054"/>
  <path d="M80.0967 30.2752V31.2172H78.8184V35.0986H77.6435V31.2172H76.3652V30.2752H80.0967Z" fill="#102054"/>
  <path d="M83.2374 31.2172V32.1916H84.8094V33.0991H83.2374V34.1566H85.0161V35.0986H82.0625V30.2752H85.0161V31.2172H83.2374Z" fill="#102054"/>
  <path d="M87.263 31.4056C87.4697 31.0328 87.7573 30.7411 88.126 30.5325C88.4947 30.3238 88.912 30.2205 89.38 30.2205C89.9533 30.2205 90.4435 30.3724 90.8507 30.6743C91.2579 30.9761 91.5314 31.3894 91.6691 31.91H90.3767C90.2815 31.7094 90.1437 31.5555 89.9675 31.4502C89.7912 31.3448 89.5907 31.2921 89.3658 31.2921C89.0032 31.2921 88.7115 31.4177 88.4866 31.671C88.2618 31.9222 88.1503 32.2584 88.1503 32.6818C88.1503 33.1052 88.2638 33.4395 88.4866 33.6907C88.7115 33.9419 89.0032 34.0695 89.3658 34.0695C89.5907 34.0695 89.7912 34.0168 89.9675 33.9115C90.1437 33.8061 90.2794 33.6522 90.3767 33.4516H91.6691C91.5314 33.9743 91.2599 34.3855 90.8507 34.6853C90.4435 34.9851 89.9533 35.135 89.38 35.135C88.912 35.135 88.4947 35.0317 88.126 34.8231C87.7573 34.6144 87.4697 34.3247 87.263 33.954C87.0564 33.5833 86.9531 33.1599 86.9531 32.6838C86.9531 32.2078 87.0564 31.7824 87.263 31.4096" fill="#102054"/>
  <path d="M97.9409 30.2752V35.0986H96.7659V33.1133H94.9367V35.0986H93.7617V30.2752H94.9367V32.1653H96.7659V30.2752H97.9409Z" fill="#102054"/>
</svg>