<svg width="113" height="47" viewBox="0 0 113 47" fill="none" xmlns="http://www.w3.org/2000/svg">
<path d="M106.051 22.4395C105.755 22.3159 105.755 21.8905 106.051 21.7649C109.13 20.4563 111.644 17.5148 111.644 12.1141C111.644 4.12245 105.587 0 96.4997 0H77.1678C68.0963 0 62.1102 4.11029 62.0879 12.0736C62.1365 12.2418 62.1811 12.4018 62.2297 12.5699L71.3842 27.5303C71.4875 27.6984 71.7103 27.7551 71.8764 27.6478C73.0554 26.8901 74.6355 26.485 76.5864 26.485H97.0791C101.655 26.485 104.232 28.6769 104.232 32.542C104.232 36.6017 100.559 38.6639 95.4038 38.6639H78.8471C78.5615 38.6639 78.3873 38.9759 78.5352 39.219L83.0081 46.528C83.1296 46.7265 83.3464 46.8481 83.5793 46.8481H97.3992C106.55 46.8481 112.479 41.2427 112.479 32.6717C112.479 27.5971 109.823 24.0135 106.049 22.4395M96.4977 19.5892H77.1657C72.5267 19.5892 70.3348 17.9787 70.3348 13.9191C70.3348 9.60217 73.3634 8.1193 78.7114 8.1193H94.95C100.298 8.1193 103.327 9.60217 103.327 13.9191C103.327 17.9787 101.137 19.5892 96.4957 19.5892" fill="#E6222F"/>
<path d="M50.4317 46.6737L43.9451 35.7832C43.8236 35.5806 43.6068 35.457 43.3698 35.457H22.6846C22.403 35.457 22.2268 35.1511 22.3686 34.9081L25.6402 29.2906C25.7598 29.084 25.9806 28.9583 26.2196 28.9583H39.2595C39.5431 28.9583 39.7173 28.6504 39.5735 28.4073L29.9977 12.3288C29.8559 12.0918 29.5115 12.0918 29.3697 12.3288L9.05927 46.6697C8.93975 46.8743 8.71894 46.9979 8.48395 46.9979H0.364639C0.0810301 46.9979 -0.0931821 46.6879 0.0526737 46.4448L26.0879 3.09326C27.034 1.51518 28.2332 0.506348 29.9997 0.506348C31.7662 0.506348 32.9006 1.51518 33.8466 3.09326L59.9447 46.4448C60.0905 46.6879 59.9163 46.9979 59.6327 46.9979H51.007C50.772 46.9979 50.5532 46.8743 50.4317 46.6717" fill="white"/>
<path d="M53.2393 8.69446L48.3207 0.532621C48.1991 0.33207 47.9824 0.208496 47.7474 0.208496H39.3587C39.075 0.208496 38.8988 0.518436 39.0467 0.761529L43.9572 8.92338C44.0787 9.12393 44.2955 9.2475 44.5305 9.2475H52.9273C53.2109 9.2475 53.3872 8.93756 53.2393 8.69446Z" fill="white"/>
<path d="M76.0275 46.4469L56.9345 14.8388C56.813 14.6382 56.5963 14.5146 56.3613 14.5146H47.9563C47.6727 14.5146 47.4965 14.8246 47.6443 15.0677L66.6988 46.6758C66.8203 46.8764 67.0371 47 67.2721 47H75.7155C75.9991 47 76.1754 46.69 76.0275 46.4469Z" fill="white"/>
<path d="M80.0972 30.2754V31.2174H78.8189V35.0988H77.644V31.2174H76.3657V30.2754H80.0972Z" fill="white"/>
<path d="M83.2369 31.2174V32.1918H84.8089V33.0993H83.2369V34.1568H85.0156V35.0988H82.062V30.2754H85.0156V31.2174H83.2369Z" fill="white"/>
<path d="M87.2621 31.4058C87.4687 31.033 87.7564 30.7413 88.1251 30.5327C88.4937 30.324 88.9111 30.2207 89.379 30.2207C89.9523 30.2207 90.4426 30.3726 90.8497 30.6745C91.2569 30.9763 91.5304 31.3896 91.6681 31.9102H90.3757C90.2805 31.7096 90.1427 31.5557 89.9665 31.4503C89.7903 31.345 89.5897 31.2923 89.3648 31.2923C89.0022 31.2923 88.7105 31.4179 88.4856 31.6712C88.2608 31.9224 88.1494 32.2586 88.1494 32.682C88.1494 33.1054 88.2628 33.4397 88.4856 33.6909C88.7105 33.9421 89.0022 34.0697 89.3648 34.0697C89.5897 34.0697 89.7903 34.017 89.9665 33.9117C90.1427 33.8063 90.2785 33.6524 90.3757 33.4518H91.6681C91.5304 33.9745 91.2589 34.3857 90.8497 34.6855C90.4426 34.9853 89.9523 35.1352 89.379 35.1352C88.9111 35.1352 88.4937 35.0319 88.1251 34.8233C87.7564 34.6146 87.4687 34.3249 87.2621 33.9542C87.0554 33.5835 86.9521 33.1601 86.9521 32.684C86.9521 32.208 87.0554 31.7826 87.2621 31.4098" fill="white"/>
<path d="M97.9399 30.2754V35.0988H96.765V33.1135H94.9357V35.0988H93.7607V30.2754H94.9357V32.1654H96.765V30.2754H97.9399Z" fill="white"/>
</svg>
